<svg>
    <symbol id="close_ID" width="19" height="19" viewBox="0 0 19 19" fill="currentColor" xmlns="http://www.w3.org/2000/svg" xmlns:xlink="http://www.w3.org/1999/xlink">
        <path id="Vector" d="M0.977051 19.0005C0.726746 19.0005 0.47644 18.9053 0.286316 18.7137C-0.095459 18.3319 -0.095459 17.713 0.286316 17.3313L17.3313 0.286316C17.713 -0.0954285 18.332 -0.0954285 18.7137 0.286316C19.0955 0.66806 19.0955 1.28696 18.7137 1.66895L1.66895 18.7137C1.47736 18.9041 1.22705 19.0005 0.977051 19.0005Z" fill="currentColor" fill-opacity="1.000000" fill-rule="nonzero"/>
        <path id="Vector" d="M18.0232 19.0005C17.7729 19.0005 17.5229 18.9053 17.3325 18.7137L0.286316 1.66895C-0.095459 1.28696 -0.095459 0.66806 0.286316 0.286316C0.66803 -0.0954285 1.28699 -0.0954285 1.66895 0.286316L18.7137 17.3313C19.0955 17.713 19.0955 18.3319 18.7137 18.7137C18.5221 18.9041 18.272 19.0005 18.0232 19.0005Z" fill="currentColor" fill-opacity="1.000000" fill-rule="nonzero"/>
    </symbol>
</svg>
