<svg>
	<symbol id="molelula_ID" width="47" height="47" viewBox="0 0 47 47" fill="currentColor" xmlns="http://www.w3.org/2000/svg" xmlns:xlink="http://www.w3.org/1999/xlink">
		<path d="M41.873 0C39.0449 0 36.7451 2.29959 36.7451 5.12726C36.7451 6.01172 36.9697 6.84406 37.3662 7.57126L28.9668 15.9706C27.8086 15.0691 26.3594 14.5273 24.7822 14.5273C23.2041 14.5273 21.7549 15.0691 20.5967 15.9698L14.043 9.41623C14.3438 8.90778 14.5273 8.32327 14.5273 7.69092C14.5273 5.80579 12.9941 4.27274 11.1094 4.27274C9.22363 4.27274 7.69043 5.80579 7.69043 7.69092C7.69043 9.57605 9.22363 11.1091 11.1094 11.1091C11.7412 11.1091 12.3262 10.9254 12.834 10.6246L19.3877 17.1781C18.4873 18.3368 17.9453 19.7861 17.9453 21.3636C17.9453 22.9411 18.4873 24.3904 19.3877 25.5483L8.56641 36.3712C7.65527 35.5448 6.45117 35.0364 5.12695 35.0364C2.2998 35.0364 0 37.3359 0 40.1636C0 42.9913 2.2998 45.2909 5.12695 45.2909C7.95508 45.2909 10.2549 42.9913 10.2549 40.1636C10.2549 39.2792 10.0303 38.4468 9.63379 37.7196L20.5967 26.7567C21.542 27.4916 22.6826 27.9838 23.9277 28.1402L23.9277 36.8224C21.5068 37.2308 19.6553 39.3364 19.6553 41.8727C19.6553 44.7004 21.9551 47 24.7822 47C27.6104 47 29.9102 44.7004 29.9102 41.8727C29.9102 39.3373 28.0586 37.2317 25.6377 36.8224L25.6377 28.1402C26.8828 27.9838 28.0234 27.4916 28.9678 26.7567L35.5215 33.3102C35.2197 33.8195 35.0361 34.404 35.0361 35.0364C35.0361 36.9215 36.5693 38.4545 38.4541 38.4545C40.3398 38.4545 41.873 36.9215 41.873 35.0364C41.873 33.1512 40.3398 31.6182 38.4541 31.6182C37.8223 31.6182 37.2373 31.8019 36.7295 32.1027L30.1758 25.5492C31.0762 24.3904 31.6182 22.9411 31.6182 21.3636C31.6182 19.7861 31.0762 18.3368 30.1758 17.1789L38.4346 8.91974C39.3447 9.74609 40.5488 10.2545 41.873 10.2545C44.7002 10.2545 47 7.95496 47 5.12726C47 2.29959 44.7002 0 41.873 0ZM9.40039 7.69092C9.40039 6.74835 10.167 5.98181 11.1094 5.98181C12.0518 5.98181 12.8184 6.74835 12.8184 7.69092C12.8184 8.63348 12.0518 9.39999 11.1094 9.39999C10.167 9.39999 9.40039 8.63348 9.40039 7.69092ZM5.12695 43.5818C3.24219 43.5818 1.70898 42.0488 1.70898 40.1636C1.70898 38.2785 3.24219 36.7455 5.12695 36.7455C7.0127 36.7455 8.5459 38.2785 8.5459 40.1636C8.5459 42.0488 7.0127 43.5818 5.12695 43.5818ZM28.2002 41.8727C28.2002 43.7579 26.667 45.2909 24.7822 45.2909C22.8965 45.2909 21.3633 43.7579 21.3633 41.8727C21.3633 39.9876 22.8965 38.4545 24.7822 38.4545C26.667 38.4545 28.2002 39.9876 28.2002 41.8727ZM24.7822 26.4909C21.9541 26.4909 19.6543 24.1913 19.6543 21.3636C19.6543 18.5359 21.9541 16.2364 24.7822 16.2364C27.6094 16.2364 29.9092 18.5359 29.9092 21.3636C29.9092 24.1913 27.6094 26.4909 24.7822 26.4909ZM40.1641 35.0364C40.1641 35.9789 39.3975 36.7455 38.4541 36.7455C37.5117 36.7455 36.7451 35.9789 36.7451 35.0364C36.7451 34.0938 37.5117 33.3273 38.4541 33.3273C39.3975 33.3273 40.1641 34.0938 40.1641 35.0364ZM41.873 8.54544C39.9873 8.54544 38.4541 7.01239 38.4541 5.12726C38.4541 3.24216 39.9873 1.70908 41.873 1.70908C43.7578 1.70908 45.291 3.24216 45.291 5.12726C45.291 7.01239 43.7578 8.54544 41.873 8.54544Z" fill="currentColor" fill-opacity="1.000000" fill-rule="nonzero"/>
	</symbol>
</svg>
