
<svg>
    <symbol id="home_ID" width="25.000000" height="22.303680" viewBox="0 0 25 22.3037" fill="currentColor" xmlns="http://www.w3.org/2000/svg" xmlns:xlink="http://www.w3.org/1999/xlink">
        <path id="Vector" d="M24.8101 10.3193L20.1975 6.38017C20.2029 6.35323 20.2083 6.32629 20.2136 6.29396L20.2136 1.1424C20.2083 0.835236 19.9658 0.587357 19.6587 0.576584L17.0828 0.576584C16.7864 0.576584 16.5439 0.840637 16.5439 1.1424L16.5439 3.27631L12.8528 0.129333C12.6533 -0.0431061 12.3569 -0.0431061 12.1521 0.129333L0.194824 10.3139C-0.0368652 10.5025 -0.0639648 10.842 0.124756 11.0737C0.313232 11.3054 0.652832 11.3324 0.884521 11.1438C0.889893 11.1384 0.889893 11.1384 0.895264 11.133L12.5024 1.25017L16.6572 4.79053L19.1414 6.90288L24.115 11.1384C24.3413 11.3324 24.6809 11.3054 24.8748 11.0791C25.0635 10.8528 25.0364 10.5133 24.8101 10.3193ZM19.1306 5.4695L17.6216 4.19777L17.6216 1.65971L19.1306 1.65971L19.1306 5.4695Z" fill="currentColor" fill-opacity="1.000000" fill-rule="currentColor"/>
        <path id="Vector" d="M22.4338 11.4078L20.9197 10.1145L12.8528 3.22243C12.6533 3.04999 12.3569 3.04999 12.1523 3.22243L4.08545 10.1145L2.57129 11.4078C2.34497 11.6018 2.31787 11.9413 2.51196 12.1676C2.70068 12.3939 3.03467 12.4209 3.25562 12.2323L3.26099 12.2269L3.93457 11.6449L3.93457 21.7486C3.93994 22.0504 4.18774 22.2983 4.4895 22.3037L20.51 22.3037C20.8118 22.2983 21.0598 22.0558 21.0652 21.7486L21.0652 11.6449L21.7388 12.2269C21.8357 12.3077 21.9543 12.3562 22.0835 12.3562C22.2397 12.3562 22.3906 12.2861 22.4932 12.1676C22.6924 11.9359 22.6602 11.5964 22.4338 11.4078ZM14.658 21.2206L10.3472 21.2206L10.3472 15.4008L14.658 15.4008L14.658 21.2206ZM15.7358 21.2206L15.7358 14.8781C15.7358 14.5817 15.5149 14.3231 15.2185 14.3231L9.78662 14.3231C9.49023 14.3231 9.26929 14.5817 9.26929 14.8781L9.26929 21.2206L5.01221 21.2206L5.01221 10.7234L12.5024 4.34326L19.9927 10.7234L19.9927 21.2206L15.7358 21.2206Z" fill="currentColor" fill-opacity="1.000000" fill-rule="currentColor"/>
    </symbol>
</svg>
