
<svg>
    <symbol id="logo_ID" width="1363" height="1400" viewBox="0 0 1363 1400" fill="currentColor" xmlns="http://www.w3.org/2000/svg">
        <path d="M250.582 1.58857C239.791 2.52064 214.345 6.11578 205.286 8.11308C200.223 9.1783 194.361 10.5099 192.23 10.9094C182.105 12.9067 189.699 13.9719 215.544 13.9719C236.726 13.9719 248.85 14.6377 263.238 16.635C293.879 20.8959 299.342 21.8279 307.868 24.0915C312.264 25.2899 317.993 26.7546 320.524 27.2872C323.055 27.8198 331.182 30.2166 338.509 32.6133C345.837 34.8769 353.697 37.2737 355.828 37.8063C358.093 38.4721 362.49 39.9367 365.82 41.2682C369.151 42.4666 373.281 43.7982 375.146 44.1976C377.011 44.5971 379.143 45.3959 379.809 45.9285C380.608 46.328 384.205 47.926 387.802 49.1244C404.055 54.9831 469.735 87.7387 479.06 94.6626C480.926 95.9941 488.786 100.388 510.368 111.972C514.764 114.236 522.891 118.63 528.353 121.693C533.815 124.755 541.942 129.149 546.338 131.28C554.332 135.407 555.797 136.073 561.259 138.869C569.653 143.263 581.376 148.989 584.307 150.187C586.172 150.853 589.503 152.185 591.634 153.117C593.899 154.049 597.097 155.38 598.962 156.179C600.827 156.978 608.287 160.041 615.615 162.97C622.942 166.033 629.603 168.429 630.403 168.429C631.335 168.429 633.733 169.361 635.732 170.427C637.863 171.492 640.661 172.424 641.86 172.424C643.059 172.424 645.457 172.957 647.189 173.622C652.251 175.62 665.707 178.815 675.565 180.546C680.761 181.345 688.355 182.943 692.485 184.008C703.409 186.538 734.717 187.737 748.172 185.872C778.281 181.878 794.401 178.416 830.105 168.296C837.965 166.166 850.222 162.837 854.751 161.772C859.814 160.573 875.667 156.446 900.713 149.655C909.506 147.391 918.832 144.994 921.363 144.329C923.894 143.796 930.289 142.331 935.352 141.133C945.743 138.736 951.072 137.671 968.658 134.609C996.901 129.549 1018.08 127.019 1039.93 125.687C1070.71 123.823 1084.83 125.155 1119.33 133.277C1127.99 135.274 1142.34 141.344 1145.41 142.851C1146.6 143.439 1146.41 143.351 1148.91 144.462C1149.89 144.896 1151.9 145.849 1155.04 147.791C1157.64 149.404 1158.9 150.346 1160.37 151.119C1161.74 151.845 1164.36 153.383 1168.23 156.312C1177.69 163.236 1189.68 176.418 1196.34 186.938C1204.86 200.519 1204.86 200.786 1207.26 205.712C1208.46 208.242 1210.06 211.837 1210.99 213.701C1211.92 215.566 1213.39 219.693 1214.32 223.022C1215.39 226.351 1216.72 230.745 1217.39 233.009C1220.45 243.128 1223.91 265.098 1225.25 283.474C1227.78 317.561 1224.71 360.569 1217.12 398.118C1216.32 401.713 1214.85 409.303 1213.79 414.762C1212.72 420.222 1210.06 431.939 1207.79 440.727C1205.4 449.515 1203.13 458.836 1202.47 461.366C1201.93 463.896 1199.27 472.551 1196.6 480.673C1193.94 488.662 1190.87 498.249 1189.81 501.978C1187.81 509.168 1185.41 516.358 1183.68 520.619C1181.82 524.747 1175.95 541.124 1173.16 549.247C1171.82 553.241 1170.09 558.035 1169.43 559.899C1168.63 561.763 1166.36 567.755 1164.5 573.214C1162.5 578.674 1160.1 584.932 1159.17 587.195C1158.23 589.326 1156.5 593.853 1155.44 597.182C1154.37 600.511 1152.64 604.905 1151.84 607.168C1150.91 609.299 1149.71 612.361 1149.18 613.826C1146.91 619.685 1136.92 644.584 1135.85 647.114C1132.79 654.038 1128.93 663.359 1127.99 665.756C1123.73 676.142 1111.87 704.903 1109.21 711.028C1107.88 713.957 1105.48 719.683 1103.88 723.677C1102.28 727.672 1098.82 735.395 1096.42 740.721C1093.89 746.18 1091.89 750.707 1091.89 751.107C1091.89 751.373 1089.76 756.033 1087.23 761.493C1084.7 766.952 1082.56 771.745 1082.56 772.145C1082.56 772.544 1080.3 777.737 1077.37 783.862C1074.57 789.987 1071.37 797.044 1070.17 799.574C1067.51 805.699 1061.78 818.349 1057.65 827.537C1042.06 861.491 996.235 952.967 989.441 963.353C985.311 969.744 983.978 972.007 983.046 974.005C982.513 975.07 979.848 979.73 977.051 984.391C974.253 988.918 971.988 993.046 971.988 993.578C971.988 993.978 970.523 996.241 968.924 998.505C967.192 1000.77 963.728 1006.23 961.33 1010.62C958.932 1015.02 951.605 1026.33 945.077 1035.92C923.894 1066.81 902.046 1099.17 900.713 1101.57C900.047 1102.9 898.182 1105.69 896.717 1107.82C895.251 1110.09 893.386 1113.02 892.454 1114.48C891.521 1115.95 887.524 1122.47 883.394 1128.99C879.398 1135.39 876.067 1141.11 876.067 1141.51C876.067 1141.91 875.135 1143.38 873.802 1144.71C872.603 1146.04 872.337 1147.1 873.003 1147.1C873.802 1147.1 877.799 1143.38 882.062 1138.85C886.325 1134.19 893.653 1126.2 898.582 1121.14C903.378 1115.95 910.306 1108.49 913.903 1104.49C917.633 1100.5 924.161 1093.31 928.557 1088.52C933.087 1083.72 941.214 1074.67 946.676 1068.54C952.138 1062.42 959.998 1053.76 963.995 1049.24C967.992 1044.84 973.72 1038.18 976.651 1034.59C979.582 1030.86 982.246 1027.67 982.646 1027.27C984.911 1025 1006.49 999.038 1015.82 987.32C1031.01 968.146 1032.34 966.415 1048.46 946.309C1086.03 899.439 1142.11 818.482 1182.48 752.971C1191.81 737.925 1197.14 728.87 1197.14 728.471C1197.14 728.204 1199.53 723.944 1202.47 719.15C1205.4 714.357 1207.79 710.096 1207.79 709.696C1207.79 709.297 1209.26 706.767 1210.99 703.971C1212.59 701.308 1216.05 695.182 1218.59 690.655C1221.12 685.995 1226.31 676.408 1230.04 669.351C1238.7 653.506 1261.35 608.234 1268.01 593.853C1270.68 587.994 1275.34 577.875 1278.27 571.483C1281.33 564.959 1283.73 558.967 1283.73 558.035C1283.73 557.236 1284.26 555.905 1284.93 555.239C1285.46 554.44 1287.99 549.114 1290.39 543.255C1292.79 537.396 1295.06 531.937 1295.59 531.271C1296.12 530.472 1297.32 527.543 1298.25 524.613C1299.19 521.684 1300.78 517.423 1301.72 515.293C1302.65 513.029 1304.11 509.434 1305.05 507.304C1305.98 505.04 1307.71 499.98 1309.18 495.986C1310.51 491.991 1313.44 483.602 1315.71 477.344C1321.03 462.697 1326.1 447.651 1328.36 440.061C1340.62 398.251 1343.82 386.8 1345.01 379.876C1345.68 376.281 1346.48 372.952 1346.88 372.42C1347.81 370.955 1353.94 341.395 1356.34 326.881C1362.73 287.601 1363 285.071 1363 253.647C1363 223.288 1361.8 218.3 1360.8 205.712C1359.3 197.315 1358.86 192.716 1357.8 190.319C1356.76 186.861 1356.55 184.183 1354.3 178.327C1351.8 171.832 1354.8 178.827 1350.3 167.834C1347.42 160.791 1347.3 160.839 1342.81 152.845C1339.07 146.197 1334.22 140.068 1327.56 129.682C1324.63 125.155 1318.77 117.831 1314.64 113.57C1307.05 105.581 1291.33 93.3849 1288.33 91.3863C1285.91 89.7701 1285.84 89.8552 1283.33 88.1381C1276.54 83.4777 1274.81 82.5458 1254.82 72.5593C1244.43 67.4995 1235.07 63.4651 1234.17 63.2385C1233.07 62.9581 1232.07 62.4584 1230.98 62.0401C1229.57 61.4591 1226.45 59.9097 1222.45 58.5782C1218.45 57.2466 1212.99 55.5156 1210.46 54.4503C1207.93 53.5183 1202.86 52.1868 1199.13 51.3878C1195.54 50.5889 1188.34 49.1243 1183.15 48.059C1178.09 46.8607 1184.59 48.059 1164.1 44.9702C1159.04 44.0381 1145.05 42.7329 1123.2 42.7329C1088.96 42.5998 1080.83 43.2655 1057.25 48.059C1051.79 49.2574 1043.93 50.722 1039.93 51.5209C1031.67 53.1188 1022.75 55.3824 1007.29 60.0428C1001.43 61.7737 995.968 63.2385 995.169 63.2385C994.37 63.2385 982.646 66.9667 969.19 71.3608C955.735 75.888 942.945 80.0158 940.681 80.5484C936.284 81.7468 934.686 82.2793 911.771 90.8011C903.112 93.9968 893.253 97.4588 889.789 98.6572C886.192 99.8556 881.663 101.587 879.398 102.519C877.266 103.451 869.672 106.513 862.745 109.176C855.817 111.972 847.557 115.301 844.493 116.633C841.429 118.098 838.232 119.163 837.432 119.163C836.766 119.163 835.034 119.695 833.702 120.361C832.503 121.027 828.773 122.625 825.442 123.823C822.111 125.155 818.248 126.619 816.783 127.152C794.934 136.073 750.171 142.065 705.541 142.198C664.774 142.331 642.126 138.736 620.278 128.75C602.825 120.894 589.769 114.636 581.643 110.375C576.847 107.845 560.06 99.3229 544.34 91.3337C516.896 77.4858 485.189 61.2412 479.727 58.1787C475.463 55.9151 453.881 45.9285 453.082 45.9285C452.682 45.9285 448.552 44.1976 444.023 42.0671C408.718 25.5562 393.93 19.8306 369.817 13.3061C365.021 12.1077 359.692 10.5099 357.827 9.97729C339.309 3.85226 278.825 -0.808187 250.582 1.58857Z" fill="currentColor"/>
        <path d="M178.937 42.0145C162.817 44.8107 156.022 46.4086 152.958 47.8732C141.101 53.5988 131.909 58.2591 129.777 59.5906C90.3429 83.5582 66.0962 108.058 40.1176 150.401C36.6538 155.994 23.8643 182.757 20.8001 191.013C2.54848 238.815 -2.51402 282.223 1.08302 360.117C5.87908 463.044 9.87579 508.183 19.2014 567.836C20.2672 574.76 21.8659 584.347 22.532 589.14C23.3314 593.934 24.3972 600.458 25.0633 603.787C25.7294 607.116 27.1949 615.105 28.3939 621.763C29.5929 628.287 31.3248 637.075 32.3906 641.07C33.3232 645.064 34.7886 651.323 35.588 655.051C38.3857 668.499 41.1834 680.483 43.0485 687.008C44.1143 690.603 45.8462 697.26 47.0452 701.654C49.4432 711.641 52.2409 721.761 55.7047 732.945C60.5008 748.791 67.8281 773.424 69.8265 780.614C70.8922 784.609 73.9564 794.728 76.7541 803.25C79.5518 811.905 83.5485 824.155 85.5469 830.813C87.6784 837.337 90.0765 844.794 91.1423 847.191C92.208 849.587 93.0074 852.65 93.0074 854.115C93.0074 855.446 93.6735 857.044 94.3396 857.443C95.139 857.843 95.6719 859.441 95.6719 860.772C95.6719 862.237 96.4712 865.299 97.537 867.696C98.6028 870.093 101.933 880.213 104.998 890.066C108.062 899.919 111.925 911.637 113.524 916.031C117.387 926.017 122.183 940.131 123.649 945.324C124.315 947.455 128.178 958.906 132.308 970.624C136.438 982.341 140.302 993.393 140.968 995.257C141.501 997.121 143.766 1003.11 145.764 1008.57C153.757 1030.68 157.221 1040.26 159.619 1047.19C160.951 1051.18 163.35 1057.84 164.948 1061.83C166.547 1065.83 168.945 1072.22 170.41 1076.08C171.743 1079.81 174.94 1087.27 177.338 1092.72C182.933 1104.71 185.198 1109.9 188.928 1118.42C192.925 1127.88 195.19 1132.8 201.052 1145.45C203.983 1151.58 206.248 1156.77 206.248 1157.17C206.248 1157.44 209.312 1163.83 212.909 1171.29C216.639 1178.74 219.57 1185.4 219.57 1185.93C219.57 1186.73 245.415 1240.66 249.012 1247.32C249.678 1248.51 254.208 1257.17 259.004 1266.62C263.933 1275.94 268.729 1284.47 269.662 1285.66C270.728 1286.73 271.527 1288.06 271.527 1288.46C271.527 1288.99 274.591 1294.19 278.188 1300.04C281.919 1305.9 284.85 1311.1 284.85 1311.5C284.85 1312.96 302.435 1340.52 309.762 1350.38C320.021 1364.22 336.674 1381.4 346.932 1388.72C351.461 1392.05 355.858 1394.72 356.524 1394.72C357.19 1394.72 359.588 1395.65 361.986 1396.85C364.384 1398.04 370.912 1399.24 376.774 1399.64C385.833 1400.31 387.965 1400.04 393.693 1397.25C403.818 1392.45 420.605 1373.81 429.531 1357.43C430.863 1354.9 432.728 1351.84 433.527 1350.78C438.457 1344.52 468.965 1283.53 486.017 1246.25C488.282 1241.06 491.613 1233.87 493.345 1230.27C496.142 1224.01 497.874 1220.15 506.8 1200.58C512.529 1188.06 539.04 1135.07 544.236 1125.75C546.767 1120.95 550.897 1113.5 553.295 1109.1C557.159 1101.91 564.486 1090.19 575.411 1074.08C577.542 1071.02 579.274 1068.09 579.274 1067.69C579.274 1066.09 629.766 998.452 640.69 985.27C642.022 983.806 647.751 976.882 653.613 969.825C677.193 941.596 713.83 904.979 737.144 886.338C745.937 879.281 753.397 873.155 753.797 872.623C754.463 871.824 767.386 862.636 775.779 857.177C786.037 850.253 809.218 837.471 819.077 832.943C824.539 830.413 833.598 826.419 839.06 823.889C849.452 819.095 855.846 816.166 866.771 811.373C870.235 809.908 874.098 808.044 875.297 807.378C876.629 806.712 878.228 806.18 879.027 806.18C879.693 806.18 883.424 804.715 887.287 802.984C904.207 795.128 921.392 788.87 960.294 776.353C963.624 775.288 969.886 773.69 974.282 772.891C978.679 772.092 985.873 770.628 990.269 769.696C994.666 768.63 1005.46 767.166 1014.25 766.234C1046.36 763.038 1046.47 764.261 1051.14 751.878C1052.47 748.416 1054.35 743.198 1055.02 742C1055.68 740.668 1056.05 739.353 1055.63 738.396C1054.05 736.357 1040.49 738.272 1028.9 740.269C1022.38 741.334 1013.05 742.932 1008.25 743.731C993.999 745.994 978.812 748.924 970.286 750.921C965.889 751.853 958.695 753.451 954.299 754.25C949.902 755.182 942.442 756.647 937.646 757.845C932.85 758.91 926.322 760.375 922.991 761.174C909.802 763.97 874.897 774.356 847.054 783.677C835.197 787.671 832.266 788.737 813.748 795.527C807.486 797.791 800.692 800.188 798.427 800.72C794.564 801.786 784.172 806.046 771.116 811.772C767.786 813.37 762.59 815.633 759.526 816.965C737.011 826.818 727.952 831.212 721.823 834.941C719.292 836.405 713.563 839.734 709.167 842.131C704.771 844.528 698.459 848.913 695.927 850.245C688.216 855.928 653.596 870.417 607.5 911.162C596.309 921.015 581.855 931.867 564.535 950.109C552.679 962.892 530.43 992.319 520.572 1004.04C502.24 1029.25 506.8 1022.26 481.751 1063.73C480.419 1065.59 466.926 1088.47 459.263 1104.2C448.768 1125.75 444.819 1132.36 442.054 1138.4C426.067 1173.28 410.613 1203.77 403.419 1214.96C401.154 1218.29 399.022 1221.88 398.623 1222.95C395.958 1228.81 382.503 1244.92 375.841 1249.85C368.514 1255.44 368.248 1255.57 357.59 1255.57C342.402 1255.57 336.674 1252.11 315.091 1230.27C308.697 1223.75 283.517 1190.99 283.517 1189.26C283.517 1188.86 280.586 1184.33 276.989 1178.87C273.526 1173.42 267.93 1164.23 264.866 1158.37C261.669 1152.51 256.739 1143.59 253.942 1138.66C251.144 1133.6 248.879 1129.34 248.879 1129.08C248.879 1128.54 235.956 1100.71 233.558 1096.05C232.493 1093.92 231.56 1091.66 231.56 1090.99C231.56 1090.46 230.095 1086.73 228.363 1082.87C226.631 1079.01 224.499 1073.68 223.567 1071.15C221.702 1066.36 219.836 1061.3 216.905 1054.51C215.973 1052.25 214.241 1046.92 212.909 1042.53C211.576 1038.13 209.711 1032.41 208.779 1029.88C201.984 1010.7 191.46 976.615 185.598 955.311C184.399 950.517 182.8 945.191 182.267 943.327C181.734 941.463 180.136 936.137 178.937 931.343C177.738 926.55 176.139 921.224 175.473 919.36C174.674 917.495 173.075 911.504 171.609 906.044C170.277 900.585 168.545 894.194 167.746 892.063C166.947 889.8 165.348 884.207 164.282 879.414C163.083 874.62 157.754 853.049 152.292 831.479C146.83 809.908 141.767 789.535 141.101 786.207C140.435 782.878 138.836 775.688 137.637 770.228C136.438 764.769 134.706 756.913 133.641 752.918C132.575 748.924 131.109 741.734 130.31 736.94C129.511 732.146 128.045 724.956 126.979 720.962C126.047 716.967 124.581 709.111 123.649 703.652C122.85 698.192 121.517 691.135 120.851 688.073C118.986 679.285 115.522 655.051 112.458 629.086C111.259 619.899 109.794 607.648 109.127 601.79C108.328 595.931 107.129 574.094 106.33 553.189C103.266 477.957 109.127 398.865 121.65 344.804C122.85 339.611 124.315 333.353 124.848 330.823C126.713 322.302 134.573 299.799 139.236 289.546C146.83 273.168 156.955 254.926 158.687 254.926C159.22 254.926 159.619 254.26 159.619 253.328C159.619 252.529 161.884 249.067 164.682 245.739C167.346 242.41 171.21 237.483 173.075 234.953C183.067 221.505 212.376 196.206 230.894 184.755C237.022 181.026 261.802 169.309 268.729 167.045C292.843 158.79 328.68 152.398 350.129 152.398C361.853 152.398 396.225 155.86 410.08 158.39C416.341 159.589 424.468 161.053 428.198 161.586C431.929 162.252 442.054 164.781 450.846 167.045C459.506 169.442 468.565 171.839 470.697 172.371C472.961 172.904 478.557 174.635 483.353 176.1C488.149 177.697 497.475 180.494 504.003 182.491C510.664 184.488 521.055 188.216 527.317 190.613C533.578 193.143 541.971 196.339 546.101 197.67C550.231 199.002 554.761 200.733 556.093 201.399C558.491 202.597 565.285 205.127 570.348 206.592C575.011 208.056 572.346 204.861 563.953 199.002C559.157 195.673 556.542 193.634 556.542 193.634C556.292 193.326 552.545 190.638 552.545 190.638C552.545 190.638 548.049 187.642 547.034 186.885C537.975 179.562 494.943 150.667 483.353 144.01C480.022 142.146 474.027 138.684 470.031 136.287C450.713 125.102 434.327 116.181 424.601 111.254C419.938 108.857 415.142 106.461 414.077 105.928C403.152 99.936 395.425 96.341 365.85 83.292C345.733 74.5039 318.022 64.118 307.098 61.3218C302.835 60.1234 294.975 57.8597 289.779 55.9955C284.45 54.2646 276.323 52.001 271.527 51.202C266.731 50.27 261.535 49.0716 259.804 48.4058C245.016 42.6803 196.789 38.952 178.937 42.0145Z" fill="currentColor"/>
    </symbol>
</svg>